<?xml version="1.0" encoding="utf-8"?>
<!-- Generator: Adobe Illustrator 16.0.4, SVG Export Plug-In . SVG Version: 6.00 Build 0)  -->
<!DOCTYPE svg PUBLIC "-//W3C//DTD SVG 1.1//EN" "http://www.w3.org/Graphics/SVG/1.1/DTD/svg11.dtd">
<svg version="1.1" id="Layer_1" xmlns="http://www.w3.org/2000/svg" xmlns:xlink="http://www.w3.org/1999/xlink" x="0px" y="0px"
                          width="900px" height="550px" viewBox="0 0 900 550" enable-background="new 0 0 900 550" xml:space="preserve">
<g id="Layer_2">
                         <g>
                                                  <g>
                                                                           <polygon fill="#EAEAEA" stroke="#000000" stroke-width="4" stroke-miterlimit="10" points="115.1,319.1 97.2,466.9 112.9,466.9 
                                                                                                    124.2,319.1                                                                "/>
                                                                           <polygon fill="#EAEAEA" stroke="#000000" stroke-width="4" stroke-miterlimit="10" points="180.9,319.1 198.7,466.9 183,466.9 
                                                                                                    171.7,319.1                                                                "/>
                                                                           
                                                                                                    <rect x="58.4" y="172.1" fill="#FFFFFF" stroke="#000000" stroke-width="4" stroke-miterlimit="10" width="177.9" height="191.6"/>
                                                                           
                                                                                                    <rect x="46.7" y="353.6" fill="#EAEAEA" stroke="#000000" stroke-width="4" stroke-miterlimit="10" width="200" height="10.104"/>
                                                  </g>
                                                  <g>
                                                                           <path d="M89.6,291.3c-8-0.5-12.6-4.399-12.8-11.3h8c0.3,2.9,1.9,4.5,4.8,4.9V277.1c-6.6-1.7-11.9-3.2-11.9-10.396
                                                                                                    c0-6.2,5.1-9.5,11.9-9.8V254h2.9v3c6.8,0.5,11.1,3.9,11.4,10.3h-7.6c-0.3-2.4-1.6-3.6-3.8-4.1v7c7.3,1.7,12.1,4,12.1,10.6
                                                                                                    c0,6.5-5.2,10.101-12.1,10.5v4.3h-2.9V291.3L89.6,291.3z M89.6,263.1c-2.6,0.2-4,1.4-4,3.1c0,1.8,1.2,2.5,4,3.3V263.1z
                                                                                                     M96.6,281.5c0-2-1.4-2.8-4.1-3.5v7C94.8,284.6,96.6,283.6,96.6,281.5z"/>
                                                                           <path d="M109.1,282.4h7.7c0.5,1.6,1.9,3.1,4.6,3.1c1.8,0,3.3-0.6,4.3-1.9c1.2-1.396,1.8-3.6,1.9-6.6h-0.1c-1.7,1.8-4,3.2-7.4,3.2
                                                                                                    c-6.7,0-12.1-4.601-12.1-11.7c0-7,5.6-11.8,13.3-11.8c4.1,0,7.6,1.4,9.9,3.7c2.9,2.9,4.3,7.2,4.3,13.3c0,5.1-1.1,9.8-3.4,12.8
                                                                                                    c-2.4,3-5.8,4.7-10.6,4.7C114.5,291.4,110,287.8,109.1,282.4z M127.5,268.7c0-3.3-2.5-5.7-5.9-5.7s-5.8,2.5-5.8,5.7
                                                                                                    c0,3.3,2.2,5.7,5.8,5.7C125,274.4,127.5,272,127.5,268.7z"/>
                                                                           <path d="M139.1,282.5h8.3v8.1h-8.3V282.5z"/>
                                                                           <path d="M150.3,274.1c0-10.5,5.9-17.3,14.6-17.3c8.9,0,14.6,6.8,14.6,17.3c0,10.5-5.9,17.3-14.7,17.3
                                                                                                    C156.3,291.4,150.3,284.7,150.3,274.1z M171.2,274.1c0-6.4-1.8-11-6.2-11s-6.3,4.5-6.3,11c0,6.5,1.8,10.9,6.3,10.9
                                                                                                    C169.4,285.1,171.2,280.7,171.2,274.1z"/>
                                                                           <path d="M185.2,256.1h16.7c3.6,0,6.2,0.9,8.1,2.4c2,1.6,3,3.9,3,6.6c0,3.4-1.8,5.6-4.8,6.8v0.1c3.8,1.2,6.2,4.3,6.2,8.5
                                                                                                    c0,3.5-1.3,6-3.5,7.7c-2,1.6-4.9,2.5-8.5,2.5h-17v-34.6H185.2z M200.6,269.8c2.5,0,4.2-1.2,4.2-3.5c0-2.2-1.6-3.4-4.1-3.4h-7v6.9
                                                                                                    H200.6L200.6,269.8z M201.3,283.8c2.8,0,4.5-1.6,4.5-4.1c0-2.8-2-4.2-4.6-4.2h-7.5v8.2h7.6V283.8z"/>
                                                  </g>
                                                  <g>
                                                                           <path d="M81.9,218.4h3l3.6,14.9c0.4,1.5,0.9,3.9,0.9,3.9h0.1c0,0,0.5-2.4,1-3.9l4.1-14.9h3.1l4,14.9c0.4,1.5,0.9,3.9,0.9,3.9h0.1
                                                                                                    c0,0,0.5-2.5,0.9-3.9l3.8-14.9h2.9l-6.4,22.9h-2.8l-4.2-16.2c-0.4-1.3-0.8-3.5-0.8-3.5H96c0,0-0.5,2.1-0.9,3.5l-4.5,16.2h-2.9
                                                                                                    L81.9,218.4z"/>
                                                                           <path d="M118.4,218.4h3.2l8.5,22.9H127l-2.4-7h-9.1l-2.5,7h-3L118.4,218.4z M116.2,232h7.5l-2.6-7.7c-0.4-1.3-1-3.2-1-3.2H120
                                                                                                    c0,0-0.6,1.9-1.1,3.2L116.2,232z"/>
                                                                           <path d="M149.2,238.3L149.2,238.3c-1.7,2.3-4.2,3.5-7.2,3.5c-6.4,0-10.8-4.9-10.8-11.9c0-6.7,3.8-12,11-12c5.3,0,8.6,2.9,9.3,7.4
                                                                                                    h-3c-0.6-3-2.8-4.9-6.4-4.9c-5.5,0-8,4.1-8,9.5c0,5.6,3.3,9.4,7.9,9.4c4.7,0,6.9-3.2,6.9-7.1v-0.5H142v-2.5h9.8v12.1H150
                                                                                                    L149.2,238.3z"/>
                                                                           <path d="M156.5,218.4h16.2v2.5h-13.3v7.3h12.1v2.4h-12.1v8.1h13.7v2.7h-16.6V218.4L156.5,218.4z"/>
                                                                           <path d="M186.5,231.7H180v9.6h-2.9v-22.9h10.3c2.4,0,4.3,0.8,5.5,2.2c1,1.1,1.5,2.6,1.5,4.4c0,3.2-1.9,5.6-5,6.5l5.6,9.9h-3.3
                                                                                                    L186.5,231.7z M180,229.3h6.8c3.2,0,4.8-1.4,4.8-4.3c0-2.8-1.6-4.2-4.6-4.2h-7V229.3L180,229.3z"/>
                                                                           <path d="M197.2,233.5h2.8c0.4,3.9,2.8,5.9,7.1,5.9c3.2,0,5.5-1.4,5.5-4.3c0-3.1-2.8-3.9-6.9-4.8c-4-0.9-7.5-2.1-7.5-6.4
                                                                                                    c0-3.8,3.1-6.1,7.8-6.1c5.7,0,8.1,2.9,8.7,7.2H212c-0.4-3.3-2.5-4.9-5.9-4.9c-3.1,0-5.2,1.3-5.2,3.7c0,2.6,2.6,3.4,6,4
                                                                                                    c4.5,0.9,8.5,2,8.5,7.2c0,4.3-3.5,6.7-8.4,6.7C200.6,241.8,197.5,238.2,197.2,233.5z"/>
                                                  </g>
                         </g>
                         <g id="ball">
                                                  <g>
                                                                           <g>
                                                                                                    <path fill="#F68D43" stroke="#000000" stroke-width="4" stroke-miterlimit="10" d="M87.6,320.9c0,17-13.8,30.8-30.8,30.8
                                                                                                                             S26,337.9,26,320.9S39.8,290.1,56.8,290.1S87.6,303.9,87.6,320.9z"/>
                                                                                                    <path fill="none" stroke="#000000" stroke-width="2" stroke-miterlimit="10" d="M33.5,300.9c0,0-0.4,8.3,9.1,11
                                                                                                                             c7.4,2.1,22.5-7.5,37.6-11"/>
                                                                                                    <path fill="none" stroke="#000000" stroke-width="2" stroke-miterlimit="10" d="M32.8,340.1c-0.6-0.8,3.8-9.3,23.5-1.195
                                                                                                                             c3.2,1.3,10.9,7.195,17.6,7.195"/>
                                                                                                    <path fill="none" stroke="#000000" stroke-width="2" stroke-miterlimit="10" d="M62.8,290.1c0,0-45,17.805-11.3,61.104"/>
                                                                                                    <path fill="none" stroke="#000000" stroke-width="2" stroke-miterlimit="10" d="M26.2,318.5c0,0,22.7,9.4,61.2,6"/>
                                                                           </g>
                                                  </g>
                                                  <path opacity="0.3" enable-background="new    " d="M34.9,342.5c0,0,24.4,1.6,33.6-9.2s13-17.896,12.3-31.6
                                                                           c0,0,18.9,24.1-8.8,45.896C72.1,347.6,57.1,360.3,34.9,342.5z"/>
                         </g>
</g>
<g id="arm1">
                         <g>
                                                  <path fill="#FFFFFF" stroke="#000000" stroke-width="4" stroke-linecap="round" stroke-miterlimit="10" d="M317.1,256.1l-4.6-2
                                                                           l-16.5,0.6l-54.8-36.4l12.9-19.3c0,0,47.2,30.7,51.8,27.3c10.6-7.8,23.2-7.6,23.2-7.6"/>
                                                  <polygon fill="#FFFFFF" stroke="#000000" stroke-width="4" stroke-linecap="round" stroke-miterlimit="10" points="251.4,203.1 
                                                                           239,187.5 222.1,187.5 218.1,203.1 244.3,213.7                              "/>
                                                  
                                                                           <line fill="none" stroke="#000000" stroke-width="4" stroke-linecap="round" stroke-miterlimit="10" x1="228.3" y1="196.6" x2="135.2" y2="187.7"/>
                         </g>
</g>
<g id="other">
                         <g>
                                                  <g>
                                                                           <polygon fill="#FFFFFF" stroke="#000000" stroke-width="4" stroke-miterlimit="10" points="394.7,374.3 387.1,356.2 397.1,341.6 
                                                                                                    406.9,345.6 405.5,369                                                      "/>
                                                                           <path fill="#FFFFFF" stroke="#000000" stroke-width="4" stroke-miterlimit="10" d="M317.4,320.8c0.6,19.5,5.2,51.3,5.2,51.3
                                                                                                    l1.7,77.604h31.4V353v96.7H387l1.7-77.604c0,0,4.6-31.695,5.2-51.3L317.4,320.8L317.4,320.8z"/>
                                                                           <path fill="#FFFFFF" stroke="#000000" stroke-width="4" stroke-miterlimit="10" d="M387,449.7c0,0,17.9,2.2,17.9,13.7
                                                                                                    c0,1.695,0,3.1,0,3.1h-49.2v-16.8H387L387,449.7z"/>
                                                                           <path fill="#FFFFFF" stroke="#000000" stroke-width="4" stroke-miterlimit="10" d="M324.6,449.7c0,0-17.9,2.2-17.9,13.7
                                                                                                    c0,1.695,0,3.1,0,3.1h49.2v-16.8H324.6L324.6,449.7z"/>
                                                                           <path fill="#FFFFFF" stroke="#000000" stroke-width="4" stroke-miterlimit="10" d="M316.2,220.8c11.6-5,19.2-3.7,19.2-3.7
                                                                                                    l8.2-3.5l10.7,6.1h1.7l11.8-6.2l7.9,3.7c0,0,20.896-4.2,26.896,10.3c9.604,23.2,10.5,44.2,10.5,44.2l-3,66.896l-17.2-1.195
                                                                                                    l0.9-15.104"/>
                                                                           <path fill="#FFFFFF" stroke="#000000" stroke-width="4" stroke-miterlimit="10" d="M389.5,260.8c3,32.7,4.4,60.104,4.4,60.104
                                                                                                    h-76.5c0,0-4.6-33.104-4.1-66.9"/>
                                                                           <path d="M357.8,219.9c0.3,1.4,3.6,7.3,3.6,7.3l-6.4,9l-7-8.1l3.9-8.1h5.9V219.9z"/>
                                                                           <path fill="none" stroke="#000000" stroke-width="4" stroke-miterlimit="10" d="M329.2,180.2c0,14.9,12.1,27,27,27
                                                                                                    c14.9,0,27-12.1,27-27c0-14.9-12.1-27-27-27C341.3,153.1,329.2,165.2,329.2,180.2z"/>
                                                                           <circle cx="369.1" cy="173.2" r="3.9"/>
                                                  </g>
                                                  
                                                                           <line fill="none" stroke="#000000" stroke-width="4" stroke-linecap="round" stroke-miterlimit="10" x1="391.8" y1="178.9" x2="383.2" y2="178.9"/>
                         </g>
                         <polygon points="356.3,226.9 371.2,295.1 360.6,304.2 351.1,294.4 352.6,228.1                        "/>
                         <g>
                                                  <g>
                                                                           <polygon fill="#EAEAEA" stroke="#000000" stroke-width="4" stroke-miterlimit="10" points="608.4,319.1 626.2,466.9 610.5,466.9 
                                                                                                    599.2,319.1                                                                "/>
                                                                           <polygon fill="#EAEAEA" stroke="#000000" stroke-width="4" stroke-miterlimit="10" points="542.6,319.1 524.7,466.9 540.4,466.9 
                                                                                                    551.7,319.1                                                                "/>
                                                                           
                                                                                                    <rect x="487.2" y="172.1" fill="#FFFFFF" stroke="#000000" stroke-width="4" stroke-miterlimit="10" width="177.896" height="191.6"/>
                                                                           
                                                                                                    <rect x="476.8" y="353.6" fill="#EAEAEA" stroke="#000000" stroke-width="4" stroke-miterlimit="10" width="200" height="10.104"/>
                                                  </g>
                                                  <g>
                                                                           <path d="M518.9,291.8c-8-0.5-12.7-4.399-12.805-11.3h8c0.305,2.9,1.9,4.5,4.805,4.9V277.6C512.3,275.9,507,274.4,507,267.2
                                                                                                    c0-6.2,5.1-9.5,11.9-9.8v-2.9h2.896v3c6.8,0.5,11.104,3.9,11.4,10.3h-7.603c-0.3-2.4-1.6-3.6-3.8-4.1v7
                                                                                                    c7.3,1.7,12.104,4,12.104,10.6c0,6.5-5.2,10.101-12.104,10.5v4.3H518.9V291.8L518.9,291.8z M518.9,263.6c-2.604,0.2-4,1.4-4,3.1
                                                                                                    c0,1.8,1.195,2.5,4,3.3V263.6z M525.9,282c0-2-1.4-2.8-4.104-3.5v7C524.1,285.1,525.9,284.1,525.9,282z"/>
                                                                           <path d="M543.3,279.7c3-2.601,6.9-5,9.5-7.3c1.4-1.2,2.2-2.5,2.2-4.1c0-2.6-1.5-4.3-4.3-4.3c-1.5,0-2.8,0.5-3.604,1.5
                                                                                                    c-1,1.1-1.396,2.6-1.5,4.9H538c0-3.9,0.7-6.2,2.3-8.4c1.9-2.7,5.5-4.5,10.604-4.5c8,0,12.3,4.7,12.3,10.6
                                                                                                    c0,4.6-2.604,7.2-5.5,9.5c-2.9,2.4-6.5,4.4-8.8,6.9l0,0H563.3v6.7h-25.7C537.5,285.6,540,282.4,543.3,279.7z"/>
                                                                           <path d="M567,283.1h8.3v8.104H567V283.1z"/>
                                                                           <path d="M578.3,281.3h8c0.5,2.8,2.9,4.2,5.8,4.2c3.305,0,5.4-2.3,5.4-5.7c0-3.399-2.2-5.5-5.4-5.5c-2.1,0-3.896,0.9-4.695,2
                                                                                                    H579.8l3.4-18.3h20.5v6.5H589l-1.2,5.9h0.104c1.195-1.1,3.396-2,6.396-2c6.3,0,11.4,4.3,11.4,11.3c0,7.3-5.5,12.1-13.4,12.1
                                                                                                    C584.8,292,579.1,288.3,578.3,281.3z"/>
                                                                           <path d="M611.4,256.7H628c3.6,0,6.2,0.9,8.1,2.4c2,1.6,3,3.9,3,6.6c0,3.4-1.8,5.6-4.8,6.8v0.1c3.8,1.2,6.2,4.3,6.2,8.5
                                                                                                    c0,3.5-1.3,6-3.5,7.7c-2,1.601-4.9,2.5-8.5,2.5h-17L611.4,256.7L611.4,256.7z M626.8,270.3c2.5,0,4.2-1.2,4.2-3.5
                                                                                                    c0-2.2-1.6-3.4-4.1-3.4h-7v6.9H626.8L626.8,270.3z M627.4,284.3c2.8,0,4.5-1.6,4.5-4.1c0-2.8-2-4.2-4.604-4.2h-7.5v8.2h7.604
                                                                                                    V284.3z"/>
                                                  </g>
                                                  <g>
                                                                           <path d="M509,219.4h3l3.6,14.9c0.4,1.5,0.9,3.9,0.9,3.9h0.1c0,0,0.5-2.4,1-3.9l4.104-14.9h3.1l4,14.9c0.4,1.5,0.9,3.9,0.9,3.9
                                                                                                    h0.1c0,0,0.5-2.5,0.9-3.9l3.8-14.9h2.9l-6.4,22.9h-2.8l-4.2-16.2c-0.4-1.3-0.8-3.5-0.8-3.5H523.1c0,0-0.5,2.1-0.896,3.5
                                                                                                    l-4.5,16.2h-2.9L509,219.4z"/>
                                                                           <path d="M545.5,219.4h3.2l8.5,22.9H554.1l-2.396-7H542.6l-2.5,7h-3L545.5,219.4z M543.3,233h7.5l-2.6-7.7c-0.5-1.3-1-3.2-1-3.2
                                                                                                    H547.1c0,0-0.6,1.9-1.1,3.2L543.3,233z"/>
                                                                           <path d="M576.3,239.3L576.3,239.3c-1.7,2.3-4.2,3.5-7.2,3.5c-6.396,0-10.8-4.9-10.8-11.9c0-6.7,3.8-12,11-12
                                                                                                    c5.3,0,8.604,2.9,9.3,7.4h-3c-0.6-3-2.8-4.9-6.396-4.9c-5.5,0-8,4.1-8,9.5c0,5.6,3.3,9.4,7.896,9.4c4.7,0,6.9-3.2,6.9-7.1v-0.5
                                                                                                    h-6.9v-2.5h9.805v12.1H577L576.3,239.3z"/>
                                                                           <path d="M583.7,219.4h16.2v2.5H586.6v7.3H598.7v2.4H586.6v8.1h13.7v2.7h-16.6V219.4L583.7,219.4z"/>
                                                                           <path d="M613.7,232.7h-6.5v9.6h-2.9v-22.9h10.3c2.4,0,4.305,0.8,5.5,2.2c1,1.1,1.5,2.6,1.5,4.4c0,3.2-1.896,5.6-5,6.4l5.604,9.9
                                                                                                    h-3.3L613.7,232.7z M607.1,230.4h6.805c3.195,0,4.8-1.4,4.8-4.3c0-2.8-1.604-4.2-4.604-4.2h-7V230.4L607.1,230.4z"/>
                                                                           <path d="M624.4,234.6h2.8c0.396,3.9,2.8,5.9,7.1,5.9c3.2,0,5.5-1.4,5.5-4.3c0-3.1-2.8-3.9-6.896-4.8c-4-0.9-7.5-2.1-7.5-6.4
                                                                                                    c0-3.8,3.1-6.1,7.8-6.1c5.7,0,8.1,2.9,8.7,7.2h-2.7c-0.4-3.3-2.5-4.9-5.9-4.9c-3.1,0-5.2,1.3-5.2,3.7c0,2.6,2.604,3.4,6,4
                                                                                                    c4.5,0.9,8.5,2,8.5,7.2c0,4.3-3.5,6.7-8.396,6.7C627.7,242.8,624.6,239.2,624.4,234.6z"/>
                                                  </g>
                         </g>
                         <path fill="#FFFFFF" stroke="#000000" stroke-width="4" stroke-miterlimit="10" d="M837.9,402c0,0,31.6-3.5,32.6-4.2l-4.1-47.5
                                                  l-34.104,5.4L837.9,402z"/>
                         <polygon fill="#FFFFFF" stroke="#000000" stroke-width="4" stroke-miterlimit="10" points="842.9,363.9 835.9,345.6 844.4,331.3 
                                                  859.6,335.7 855.4,363.2  "/>
                         <path d="M740.569,468.597c0,0,0.065-1.529,0.134-3.319c0.521-12.193,19.646-13.767,19.646-13.767l13.646-7.014l20.951,7.545
                                                  l-0.341,15.249l-22.672,1.675L740.569,468.597z"/>
                         <path d="M852.43,468.597c0,0-0.067-1.529-0.136-3.319c-0.521-12.193-19.646-13.767-19.646-13.767l-13.649-7.014l-20.951,7.545
                                                  l0.344,15.249l16.396,1.524L852.43,468.597z"/>
                         <path fill="#FFFFFF" stroke="#000000" stroke-width="4" stroke-miterlimit="10" d="M838.1,323.7c-0.6,19.2-5.396,50.3-5.396,50.3
                                                  l-1.7,76.2h-34.7v-94.9v94.9h-34.7l-1.697-76.2c0,0-4.805-31.2-5.4-50.3H838.1L838.1,323.7z"/>
                         <g>
                                                  <g>
                                                                           <path fill="#FFFFFF" stroke="#000000" stroke-width="4" stroke-miterlimit="10" d="M823,179.2c0,14.9-12.1,27-27,27
                                                                                                    s-27-12.1-27-27c0-14.9,12.1-27,27-27S823,164.3,823,179.2z"/>
                                                                           <circle cx="783.1" cy="172.3" r="3.9"/>
                                                  </g>
                                                  
                                                                           <line fill="none" stroke="#000000" stroke-width="4" stroke-linecap="round" stroke-miterlimit="10" x1="759" y1="181" x2="769.1" y2="181"/>
                         </g>
                         <path fill="#FFFFFF" stroke="#000000" stroke-width="4" stroke-miterlimit="10" d="M838.1,323.7c-0.6,19.2-5.396,50.3-5.396,50.3
                                                  l-1.7,76.2h-34.7v-94.9v94.9h-34.7l-1.697-76.2c0,0-4.805-31.2-5.4-50.3H838.1L838.1,323.7z"/>
                         <path fill="#FFFFFF" stroke="#000000" stroke-width="4" stroke-miterlimit="10" d="M842.7,337.5l18.3,1.2c0,0,9.5-76,0.9-99
                                                  c-8.604-23-34.104-22.6-34.104-22.6l-2.5-2l-12.3-3.8l-17.6,6.5h-1.803l-11.195-6.3l-8.5,3.7c0,0-17.2-0.2-28.305,8"/>
                         <path fill="#FFFFFF" stroke="#000000" stroke-width="4" stroke-miterlimit="10" d="M795.3,265.6v58.8c0,0,9.9,23.195,42.5,23.195
                                                  h8.9c0,0,0-75.6-5.4-93.8"/>
                         
                                                  <path fill="#FFFFFF" stroke="#000000" stroke-width="4" stroke-linecap="round" stroke-linejoin="round" stroke-miterlimit="10" d="
                                                  M795.3,265.6v58.8c0,0-7.896,23.195-40.5,23.195H746c0,0,1-64.955,2-85.956"/>
                         <polyline fill="none" stroke="#000000" stroke-width="4" stroke-miterlimit="10" points="816.6,214.2 795.3,265.6 773.1,216.7   "/>
                         <path d="M797.3,217.9c0.3,1.5,3.8,7.6,3.8,7.6l-6.695,9.4l-7.305-8.5l4.104-8.5H797.3z"/>
                         <polygon points="795.9,225.2 801.8,253.2 795,264.9 789.4,253.1 792,226.5   "/>
                         <polygon points="797.1,228.3 799.8,254.9 795.6,261.5 789.4,253.1 793.5,229.4                        "/>
                         <path d="M797.3,217.9c0.3,1.5,3.8,7.6,3.8,7.6l-6.695,9.4l-7.305-8.5l4.104-8.5H797.3z"/>
                         <path fill="#FFFFFF" stroke="#000000" stroke-width="4" stroke-miterlimit="10" d="M795.3,265.6v58.8c0,0,9.9,23.195,42.5,23.195
                                                  h8.9c0,0-2.9-96.5-2.9-97"/>
                         <path fill="#FFFFFF" stroke="#000000" stroke-width="4" stroke-miterlimit="10" d="M795.3,265.6v58.8c0,0-7.896,23.195-40.5,23.195
                                                  H746"/>
                         <polyline fill="none" stroke="#000000" stroke-width="4" stroke-miterlimit="10" points="816.6,214.2 795.3,265.6 773.1,216.7   "/>
                         <line fill="none" stroke="#000000" stroke-width="4" stroke-miterlimit="10" x1="782.8" y1="307.5" x2="756.3" y2="311.7"/>
                         <line fill="none" stroke="#000000" stroke-width="4" stroke-miterlimit="10" x1="809.4" y1="307.5" x2="835.9" y2="311.7"/>
</g>
<g id="stress2">
                         <polygon points="773.4,149.7 763.6,140.8 768.5,136.3 774.8,148.4           "/>
                         <polygon points="777.6,145.3 771.9,133.2 778.2,131 779.3,144.6             "/>
                         <polygon points="816.2,148.3 818,135.2 824.4,136.7 818,148.7               "/>
                         <polygon points="822.2,149.3 828.9,137.8 834.2,141.7 823.7,150.3           "/>
</g>
<g id="stress1">
                         <polygon points="377.5,151.3 387.3,142.4 382.4,137.9 376.1,150             "/>
                         <polygon points="373.3,146.9 379,134.8 372.7,132.6 371.6,146.2             "/>
                         <polygon points="335.6,151.3 325.8,142.4 330.7,137.9 337,150               "/>
                         <polygon points="339.8,146.9 334.1,134.8 340.4,132.6 341.5,146.2           "/>
</g>
<g id="arm2b">
                         <g>
                                                  <polygon fill="#FFFFFF" stroke="#000000" stroke-width="4" stroke-miterlimit="10" points="723.3,150.3 730.5,135.5 730.1,120.9 
                                                                           729.6,108.2 721.7,109.6 721.8,123.1 710,131.6 714.6,149.5                                           "/>
                                                  <polyline fill="#FFFFFF" stroke="#000000" stroke-width="4" stroke-miterlimit="10" points="750,265.7 707,232 696.7,209.8 
                                                                           708,154.4 726.7,157 723.4,212 753.7,220.3                                  "/>
                         </g>
</g>
<g id="arm2a">
                         <g>
                                                  <polygon fill="#FFFFFF" stroke="#000000" stroke-width="4" stroke-miterlimit="10" points="647.1,224.1 632,217.6 617.4,218.8 
                                                                           604.7,219.9 606.5,227.7 620,226.9 629.1,238.3 646.8,232.7                                           "/>
                                                  <path fill="#FFFFFF" stroke="#000000" stroke-width="4" stroke-miterlimit="10" d="M750.834,264.425L715,248.8l-7.1-1.2l-55.9-8.5
                                                                           l1.6-18.8c0,0,92.4,1.3,98.2-0.2"/>
                         </g>
</g>
<g id="other_1_">
                         <g id="arm2b_1_" display="none">
                                                  <g display="inline">
                                                                           <polygon fill="#FFFFFF" stroke="#000000" stroke-width="4" stroke-miterlimit="10" points="1636.869,174.643 1644.046,159.867 
                                                                                                    1643.676,145.274 1643.186,132.517 1635.262,133.881 1635.381,147.447 1623.592,155.958 1628.204,173.863                                                                          "/>
                                                                           <polyline fill="#FFFFFF" stroke="#000000" stroke-width="4" stroke-miterlimit="10" points="1663.587,289.992 1620.587,256.325 
                                                                                                    1610.257,234.142 1621.619,178.766 1640.306,181.357 1636.992,236.311 1667.253,244.659                                                                  "/>
                                                  </g>
                         </g>
                         <g>
                                                  <path d="M752.263,258.535h2.43l2.891,4.9c0.152,0.271,0.672,1.242,0.672,1.242h0.025c0,0-0.025-1.174-0.025-1.518v-4.625h2.357
                                                                           v9.757h-2.433l-2.862-4.831c-0.161-0.261-0.693-1.31-0.693-1.31h-0.029c0,0,0.029,1.256,0.029,1.597v4.545h-2.358L752.263,258.535
                                                                           L752.263,258.535z"/>
                                                  <path d="M761.825,263.448c0-2.907,1.893-5.103,4.803-5.103c1.129,0,2.085,0.326,2.782,0.858c0.851,0.641,1.335,1.595,1.459,2.687
                                                                           h-2.415c-0.124-0.873-0.808-1.543-1.841-1.543c-1.587,0-2.334,1.324-2.334,3.099c0,1.785,0.899,3.082,2.349,3.082
                                                                           c1.073,0,1.785-0.68,1.896-1.623h2.417c-0.07,0.967-0.509,1.855-1.177,2.498c-0.75,0.723-1.745,1.102-3.123,1.102
                                                                           C763.774,268.508,761.825,266.368,761.825,263.448z"/>
                                                  <path d="M774.552,258.535h2.481l3.52,9.757h-2.538l-0.568-1.762h-3.409l-0.561,1.762h-2.431L774.552,258.535z M776.882,264.799
                                                                           l-0.732-2.362c-0.162-0.503-0.385-1.379-0.385-1.379h-0.025c0,0-0.23,0.875-0.396,1.379l-0.752,2.362H776.882z"/>
                                                  <path d="M784.538,258.535h2.481l3.519,9.757h-2.537l-0.574-1.762h-3.409l-0.559,1.762h-2.429L784.538,258.535z M786.87,264.799
                                                                           l-0.74-2.362c-0.16-0.503-0.383-1.379-0.383-1.379h-0.025c0,0-0.232,0.875-0.395,1.379l-0.752,2.362H786.87z"/>
                         </g>
</g>
<rect x="608.5" y="347.1" width="37.5" height="4.892"/>
</svg>